<svg width="20" height="20" viewBox="0 0 20 20" fill="none" xmlns="http://www.w3.org/2000/svg">
<path fill-rule="evenodd" clip-rule="evenodd" d="M17.294 3.09629C17.8118 3.09629 18.2315 3.51602 18.2315 4.03379V8.01126C18.2315 8.52903 17.8118 8.94876 17.294 8.94876H13.3166C12.7988 8.94876 12.3791 8.52903 12.3791 8.01126C12.3791 7.49349 12.7988 7.07376 13.3166 7.07376H15.0307L13.9795 6.02252C11.7828 3.82583 8.22122 3.82582 6.02452 6.02252C5.66731 6.37974 5.369 6.7719 5.12876 7.18744C4.86961 7.63569 4.29616 7.78899 3.84791 7.52985C3.39966 7.27071 3.24636 6.69725 3.50551 6.249C3.82684 5.69318 4.22484 5.17055 4.6987 4.6967C7.62763 1.76777 12.3764 1.76777 15.3053 4.6967L16.3565 5.74794V4.03379C16.3565 3.51602 16.7763 3.09629 17.294 3.09629ZM16.1558 12.4708C16.6041 12.73 16.7573 13.3034 16.4981 13.7517C16.1768 14.3072 15.779 14.8296 15.3053 15.3033C12.3764 18.2322 7.62763 18.2322 4.6987 15.3033L3.64746 14.2521V15.9662C3.64746 16.484 3.22773 16.9037 2.70996 16.9037C2.19219 16.9037 1.77246 16.484 1.77246 15.9662L1.77246 11.9887C1.77246 11.471 2.19219 11.0512 2.70996 11.0512H6.68744C7.2052 11.0512 7.62494 11.471 7.62494 11.9887C7.62494 12.5065 7.2052 12.9262 6.68744 12.9262H4.97329L6.02452 13.9775C8.22122 16.1742 11.7828 16.1742 13.9795 13.9775C14.3365 13.6204 14.6348 13.2284 14.875 12.813C15.1341 12.3648 15.7076 12.2116 16.1558 12.4708Z" fill="#64748B" style="fill:#64748B;fill:color(display-p3 0.3922 0.4549 0.5451);fill-opacity:1;"/>
</svg>
